<svg xmlns="http://www.w3.org/2000/svg" viewBox="0 0 339 286" xmlns:xlink="http://www.w3.org/1999/xlink">
  <defs>
    <path id="a" d="M.075 72.417H91.3V.144H.075z"/>
    <path id="c" d="M.25 11.59h17.51V.98H.25z"/>
    <linearGradient id="e" x1="-.004%" x2="99.995%" y1="49.993%" y2="49.993%">
      <stop stop-color="#6C5044" offset="0%"/>
      <stop stop-color="#6C5044" offset="60.98%"/>
      <stop stop-color="#A97E6D" offset="100%"/>
    </linearGradient>
    <path id="f" d="M1.08 11.615h17.51V1.005H1.08z"/>
    <linearGradient id="h" x1="-.017%" x2="99.982%" y1="50.003%" y2="50.003%">
      <stop stop-color="#6C5044" offset="0%"/>
      <stop stop-color="#6C5044" offset="60.98%"/>
      <stop stop-color="#A97E6D" offset="100%"/>
    </linearGradient>
    <path id="i" d="M.46 11.59h17.51V.98H.46z"/>
    <linearGradient id="k" x1="-.007%" x2="99.992%" y1="49.993%" y2="49.993%">
      <stop stop-color="#6C5044" offset="0%"/>
      <stop stop-color="#6C5044" offset="60.98%"/>
      <stop stop-color="#A97E6D" offset="100%"/>
    </linearGradient>
  </defs>
  <g fill="none" fill-rule="evenodd">
    <path fill="#FFF" d="M.822 188.384L51 160.49v-6.5c0-1.57.27-3.227.788-4.81l.394-1.2.408-.74c.238-.492.504-.97.79-1.43l.898-1.623.66-.466c1.01-1.14 2.192-2.13 3.524-2.96.545-.34.926-.56 1.285-.77.193-.11.373-.22.623-.37l.145-.09c3.933-2.51 6.52-4.08 7.68-4.66 2.248-1.12 4.76-1.72 7.264-1.72 2.94 0 5.83.8 8.35 2.32.35.21 1.76 1.01 3.3 1.89l2.72 1.56 1.7-.95 36.41-98.19L197.2 1.3l17.09 6.502 34.28 131.54c3.793-2.42 6.28-3.93 7.42-4.497 2.235-1.12 4.747-1.715 7.253-1.715 2.94 0 5.83.8 8.353 2.314.36.213 1.8 1.034 3.37 1.93 1.43.82 4.693 2.696 4.693 2.696l.46.27c2.88 1.73 7.61 5.82 7.39 14.06l-.01 6.912 49.64 26.946-168.44 96.127-167.89-96z"/>
    <path fill="#398D7F" d="M168.72 269.027l141.015-80.48-142.558-77.384-139.205 77.385"/>
    <path fill="#B7224B" d="M138.746 49.015l4.988 1.852 59.393-33.05-4.865-1.852"/>
    <path fill="#EE3163" d="M203.128 17.816l47.836 183.55-58.785 33.993-48.45-184.5"/>
    <path fill="#981E3F" d="M110.222 142.093L141.45 58.12l31.46 119.464-62.688-35.49zm33.512-91.225l-4.988-1.852-47.672 128.568 5 3.292 12.563-34.027 65.858 37.07 12.805 48.79 4.88 2.64-48.446-184.49z"/>
    <path fill="#62C6F1" d="M141.45 58.12l-31.23 83.97 46.602-25.59"/>
    <path fill="#EFE51F" d="M110.222 142.093l46.6-25.592 16.087 61.09"/>
    <path fill="#62C6F1" d="M108.636 146.85l-12.56 34.026 36.694-20.44"/>
    <g transform="matrix(1 0 0 -1 96 232.853)">
      <mask id="b" fill="#fff">
        <use xlink:href="#a"/>
      </mask>
      <path fill="#000" d="M0 52l36.696 20.44L78.42 48.95 91.225.168" transform="translate(.075 -.023)" opacity=".1" mask="url(#b)"/>
    </g>
    <g transform="matrix(1 0 0 -1 253.333 194.187)">
      <mask id="d" fill="#fff">
        <use xlink:href="#c"/>
      </mask>
      <path fill="#000" d="M18.667 5.333c0-2.93-3.92-5.304-8.755-5.304-4.836 0-8.756 2.37-8.756 5.3 0 2.93 3.92 5.3 8.756 5.3 4.835 0 8.755-2.38 8.755-5.31" transform="translate(-.907 .952)" opacity=".1" mask="url(#d)"/>
    </g>
    <path fill="url(#e)" d="M1.004 11.553V1.037s.363-.69 1.637-.69c1.28 0 1.64.69 1.64.69v10.516H1.01z" transform="matrix(1 0 0 -1 260 188.853)"/>
    <path fill="#45ADAA" d="M252.126 172.243v-18.265s.124-1.015.89-1.547c.91-.63 1.582-1.11 2.47-1.68 2.468-1.57 5.715-3.6 6.464-3.97 1.02-.51 2.064-.33 2.792.1.728.44 7.468 4.27 8.56 4.92 1.092.66.873 1.53.873 2.77v17.41c0 1.24-.42 1.66-1.584 2.32-1.16.66-6.08 3.81-7.96 4.64-1.27.57-2.31.67-3.47.09-1.16-.58-7.72-4.5-7.72-4.5s-1.3-.88-1.3-2.26"/>
    <path fill="#3B9894" d="M273.546 173.05c-.712.457-7.18 4.357-7.658 4.586-.225.108-.438.256-.67.083-.187-.14-.21-.3-.227-.42l-.04-18.37s.11-.61-.02-1.1-.66-.96-.66-.96l-8.24-4.54s-.56-.23-.8-.74c-.16-.35.07-.65.23-.82-.86.55-1.21.72-2.14 1.3-1.17.72-1.17 1.89-1.17 1.89v18.26c0 1.38 1.3 2.26 1.3 2.26s6.56 3.91 7.72 4.5c1.17.58 2.21.47 3.48-.09 1.88-.83 6.8-3.99 7.97-4.64 1.1-.62 1.52-1.06 1.57-2.14-.05.26-.19.63-.61.9"/>
    <path fill="#2E7976" d="M262.63 179.376c.272-.04.508-.192.528-.62.044-.91-.044-17.21 0-18.265.044-1.05.175-1.96-.88-2.51-1.056-.54-7.24-4.11-8.296-4.76-.74-.46-1.536-.21-1.73.11-.13.4-.126.65-.126.65v18.27c0 1.39 1.303 2.27 1.303 2.27s5.5 3.29 7.31 4.29c.33.15.58.27.76.35.38.15.75.23 1.12.24"/>
    <path fill="#57C4C1" d="M273.302 151.795c-.188-.113-.553-.325-1.02-.593.705.38.293.674.293.674l-8.478 4.906.168.094s.534.466.662.96c.128.492.024 1.094.024 1.094v.072c3.07-1.766 8.38-4.823 8.82-4.988.57-.214.37 1.064.39.885l.02-.03v-.32c0-1.24.22-2.11-.87-2.77"/>
    <path fill="#42A5A2" d="M264.927 157.835c-.128-.493-.663-.96-.663-.96l-.166-.093-1.983 1.11.163.088c.888.46.932 1.186.9 2.03.28-.162 1.368-.775 1.773-1.008v-.07s.11-.604-.02-1.097"/>
    <g transform="matrix(1 0 0 -1 140 236.853)">
      <mask id="g" fill="#fff">
        <use xlink:href="#f"/>
      </mask>
      <path fill="#000" d="M18.667 5.333c0-2.93-3.92-5.304-8.755-5.304-4.836 0-8.756 2.37-8.756 5.3 0 2.93 3.92 5.3 8.756 5.3 4.835 0 8.755-2.38 8.755-5.31" transform="translate(-.075 .976)" opacity=".1" mask="url(#g)"/>
    </g>
    <path fill="url(#h)" d="M.503 11.576V1.06S.867.37 2.14.37c1.272 0 1.637.69 1.637.69v10.516H.503z" transform="matrix(1 0 0 -1 148 231.52)"/>
    <path fill="#45ADAA" d="M139.624 214.886V196.62s.124-1.014.89-1.546c.91-.63 1.582-1.114 2.472-1.682 2.466-1.576 5.713-3.6 6.462-3.975 1.02-.51 2.064-.335 2.792.1.728.44 7.468 4.267 8.56 4.92 1.092.656.874 1.53.874 2.767v17.404c0 1.236-.42 1.662-1.584 2.317-1.166.655-6.088 3.807-7.967 4.64-1.272.563-2.31.67-3.475.09-1.165-.583-7.72-4.502-7.72-4.502s-1.304-.884-1.304-2.267"/>
    <path fill="#3B9894" d="M161.044 215.694c-.712.456-7.18 4.356-7.657 4.585-.226.1-.44.25-.67.08-.188-.14-.212-.29-.228-.42l-.04-18.37s.1-.61-.03-1.1-.66-.96-.66-.96l-8.25-4.54s-.57-.23-.81-.74c-.16-.35.06-.65.23-.82-.87.55-1.22.72-2.15 1.3-1.17.72-1.17 1.89-1.17 1.89v18.26c0 1.38 1.3 2.26 1.3 2.26s6.55 3.92 7.72 4.5c1.16.58 2.2.47 3.47-.09 1.88-.84 6.8-3.99 7.96-4.64 1.09-.62 1.51-1.06 1.56-2.14-.06.27-.2.64-.61.902"/>
    <path fill="#2E7976" d="M150.127 222.02c.273-.042.51-.193.53-.62.043-.91-.045-17.21 0-18.266.043-1.055.174-1.965-.882-2.51-1.055-.546-7.24-4.11-8.295-4.765-.74-.46-1.536-.22-1.73.11-.13.4-.126.65-.126.65v18.26c0 1.38 1.303 2.26 1.303 2.26s5.5 3.29 7.315 4.28c.33.15.582.26.764.34.377.15.75.23 1.12.24"/>
    <path fill="#57C4C1" d="M160.8 194.438c-.188-.113-.553-.325-1.02-.593.705.38.293.674.293.674l-8.478 4.9.168.09s.534.46.662.96c.128.49.024 1.09.024 1.09v.07c3.06-1.77 8.37-4.83 8.81-4.99.56-.22.37 1.06.39.88l.02-.03v-.32c0-1.24.22-2.11-.88-2.77"/>
    <path fill="#42A5A2" d="M152.425 200.478c-.128-.493-.662-.96-.662-.96l-.167-.093-1.983 1.11.163.088c.888.46.932 1.186.9 2.03.28-.162 1.37-.775 1.773-1.008v-.07s.1-.604-.03-1.097"/>
    <g transform="matrix(1 0 0 -1 65.333 194.187)">
      <mask id="j" fill="#fff">
        <use xlink:href="#i"/>
      </mask>
      <path fill="#000" d="M18.667 5.333c0-2.93-3.92-5.304-8.755-5.304-4.836 0-8.756 2.37-8.756 5.3 0 2.93 3.92 5.3 8.756 5.3 4.835 0 8.755-2.38 8.755-5.31" transform="translate(-.698 .952)" opacity=".1" mask="url(#j)"/>
    </g>
    <path fill="url(#k)" d="M1.213 11.553V1.037s.364-.69 1.636-.69c1.27 0 1.63.69 1.63.69v10.516H1.21z" transform="matrix(1 0 0 -1 72 188.853)"/>
    <path fill="#45ADAA" d="M64.335 172.243v-18.265s.124-1.015.89-1.547c.91-.63 1.582-1.11 2.472-1.68 2.466-1.57 5.713-3.6 6.462-3.97 1.01-.51 2.06-.33 2.79.1.73.44 7.47 4.27 8.56 4.92 1.09.66.87 1.53.87 2.77v17.41c0 1.24-.42 1.66-1.59 2.32-1.17.66-6.09 3.81-7.97 4.64-1.27.57-2.31.67-3.48.09-1.17-.58-7.73-4.5-7.73-4.5s-1.31-.88-1.31-2.26"/>
    <path fill="#3B9894" d="M85.755 173.05c-.712.457-7.18 4.357-7.657 4.586-.226.108-.44.256-.67.083-.188-.14-.212-.3-.228-.42l-.04-18.37s.104-.61-.024-1.1-.662-.96-.662-.96l-8.246-4.54s-.566-.23-.804-.74c-.158-.35.063-.65.228-.82-.865.55-1.213.72-2.148 1.3-1.17.72-1.17 1.89-1.17 1.89v18.26c0 1.38 1.304 2.26 1.304 2.26s6.557 3.91 7.72 4.5c1.165.58 2.205.47 3.477-.09 1.877-.83 6.8-3.99 7.965-4.64 1.098-.62 1.52-1.06 1.566-2.14-.054.26-.192.63-.61.9"/>
    <path fill="#2E7976" d="M74.838 179.376c.273-.04.51-.192.53-.62.043-.91-.045-17.21 0-18.265.043-1.05.174-1.96-.882-2.51-1.055-.54-7.24-4.11-8.295-4.76-.74-.46-1.53-.21-1.73.11-.13.4-.12.65-.12.65v18.27c0 1.39 1.31 2.27 1.31 2.27s5.5 3.29 7.32 4.29c.33.15.58.27.77.35.38.15.75.23 1.12.24"/>
    <path fill="#57C4C1" d="M85.51 151.795c-.187-.113-.552-.325-1.017-.593.704.38.292.674.292.674l-8.48 4.906.17.094s.534.466.662.96c.128.492.024 1.094.024 1.094v.072c3.07-1.766 8.38-4.823 8.82-4.988.57-.214.37 1.064.39.885l.02-.03v-.32c0-1.24.22-2.11-.87-2.77"/>
    <path fill="#42A5A2" d="M77.136 157.835c-.128-.493-.662-.96-.662-.96l-.167-.093-1.983 1.11.163.088c.888.46.932 1.186.9 2.03.28-.162 1.368-.775 1.773-1.008v-.07s.104-.604-.024-1.097"/>
  </g>
</svg>
